<?xml version="1.0" standalone="no"?>
<!DOCTYPE svg PUBLIC "-//W3C//DTD SVG 20010904//EN"
 "http://www.w3.org/TR/2001/REC-SVG-20010904/DTD/svg10.dtd">
<svg version="1.0" xmlns="http://www.w3.org/2000/svg"
 width="500.000000pt" height="500.000000pt" viewBox="0 0 500.000000 500.000000"
 preserveAspectRatio="xMidYMid meet">
<metadata>
Created by potrace 1.11, written by Peter Selinger 2001-2013
</metadata>
<g transform="translate(0.000000,500.000000) scale(0.100000,-0.100000)"
fill="#000000" stroke="none">
<path d="M2355 4994 c-592 -47 -1112 -265 -1531 -645 -98 -88 -226 -224 -218
-232 3 -2 -9 -15 -27 -28 -29 -20 -30 -23 -13 -30 27 -11 46 -11 39 0 -3 5 -1
12 5 16 6 4 17 -9 25 -27 9 -20 14 -26 15 -15 0 25 25 16 25 -9 0 -11 -6 -18
-14 -16 -12 3 -12 1 -1 -13 11 -13 15 -13 22 -3 6 8 7 4 3 -12 -10 -35 -23
-46 -37 -32 -21 21 -27 13 -11 -19 8 -16 13 -33 10 -36 -8 -8 -47 7 -47 18 0
6 4 7 10 4 5 -3 10 -2 10 3 0 6 -7 13 -16 16 -8 3 -12 2 -9 -4 3 -6 -3 -10
-14 -10 -12 0 -21 5 -21 12 0 6 -9 3 -20 -7 -11 -10 -20 -16 -21 -14 -5 26 -2
72 4 76 5 3 18 -5 29 -17 16 -17 22 -19 29 -9 5 9 -2 19 -22 31 -16 10 -34 18
-39 18 -16 0 -38 -41 -33 -61 4 -13 0 -19 -11 -19 -13 0 -15 -4 -6 -19 7 -13
7 -22 0 -26 -5 -3 -10 1 -10 9 0 32 -21 14 -64 -51 -58 -90 -77 -129 -68 -138
4 -5 2 -5 -4 -2 -7 4 -34 -43 -71 -121 -68 -143 -77 -166 -63 -157 6 3 10 1
10 -4 0 -6 -7 -11 -15 -11 -8 0 -15 -7 -15 -15 0 -10 6 -12 18 -8 15 6 15 5 3
-11 -13 -15 -13 -19 0 -27 8 -5 19 -9 24 -9 16 0 33 -46 24 -62 -7 -10 -9 -10
-9 0 0 24 -28 12 -35 -15 -4 -16 -11 -33 -17 -40 -11 -14 -28 -8 -28 8 0 6 4
8 9 4 6 -3 15 4 21 15 12 23 11 24 -24 10 -29 -10 -35 0 -11 20 16 14 20 40 6
40 -5 0 -16 -21 -25 -47 -20 -58 -20 -59 0 -42 14 12 16 11 12 -6 -2 -11 -11
-19 -19 -18 -30 5 -91 -298 -109 -543 -14 -180 -1 -472 21 -459 4 3 11 -11 15
-31 4 -23 3 -39 -5 -43 -8 -5 -6 -34 9 -107 30 -143 61 -254 72 -254 5 0 7 -4
4 -9 -4 -5 0 -12 6 -14 9 -4 9 -6 1 -6 -8 -1 -8 -10 0 -36 9 -29 14 -34 34
-29 14 4 23 2 23 -5 0 -6 8 -11 18 -12 14 0 14 -2 -3 -8 -11 -5 -23 -7 -27 -5
-4 3 -9 0 -12 -5 -8 -12 14 -71 26 -71 6 0 8 -6 5 -14 -15 -38 274 -546 310
-546 8 0 11 -4 8 -10 -3 -5 3 -10 14 -10 11 0 23 -4 26 -10 3 -6 -1 -7 -9 -4
-18 7 -21 -1 -6 -19 5 -7 22 -27 37 -46 21 -27 29 -31 37 -20 25 32 43 40 56
25 10 -13 8 -15 -9 -11 -12 2 -21 -1 -21 -7 0 -6 -7 -16 -15 -22 -13 -9 -7
-19 39 -65 l54 -53 143 42 c252 74 420 133 407 142 -9 6 -5 7 9 3 12 -3 30 -2
40 4 10 5 48 22 85 36 37 15 89 44 117 65 28 21 66 40 89 43 21 4 54 17 73 30
47 32 94 47 143 46 l41 -1 -30 -13 c-20 -10 -24 -14 -12 -15 10 0 15 -4 12
-10 -13 -21 13 -8 40 20 16 16 25 30 21 30 -5 0 -3 7 4 15 9 11 13 50 12 130
-1 67 2 115 8 115 5 0 7 7 4 15 -8 19 16 20 61 1 36 -15 44 -29 23 -42 -7 -4
-8 -3 -4 4 4 7 2 12 -3 12 -20 0 -11 -32 10 -37 12 -4 18 -11 15 -20 -4 -8 4
-17 20 -23 14 -6 23 -14 19 -20 -3 -5 -13 -6 -22 -3 -13 5 -12 2 4 -14 11 -11
27 -22 36 -26 9 -3 17 -13 17 -22 0 -8 7 -15 16 -15 10 0 14 -6 10 -15 -3 -9
0 -15 9 -15 8 0 15 -4 15 -10 0 -5 5 -9 11 -7 6 1 14 -4 16 -10 3 -7 0 -13 -6
-13 -6 0 -11 -4 -11 -10 0 -5 9 -10 20 -10 12 0 17 5 14 14 -3 8 3 16 15 19
12 3 19 1 15 -4 -3 -5 -1 -9 5 -9 5 0 12 6 14 13 3 7 6 5 6 -5 1 -9 7 -21 14
-25 6 -4 18 -18 25 -30 10 -20 9 -26 -6 -41 -19 -19 -18 -19 12 -19 17 -1 25
1 18 4 -10 4 -9 10 5 26 10 11 12 17 6 13 -8 -4 -13 -1 -13 8 0 9 7 16 15 16
8 0 15 -5 15 -10 0 -6 13 -4 30 5 23 12 30 12 30 3 0 -10 2 -10 9 1 5 8 28 14
60 14 28 0 51 3 51 6 -1 15 -19 33 -28 27 -13 -8 -42 3 -42 16 0 5 4 7 9 3 15
-9 91 26 91 41 0 17 -12 18 -28 2 -9 -9 -12 -9 -12 -1 0 14 19 27 39 28 7 0
20 10 29 23 8 13 11 22 6 21 -18 -4 -43 13 -37 27 3 8 10 11 16 7 6 -4 8 2 5
15 -4 12 -2 22 3 22 5 0 9 -7 9 -17 0 -14 2 -14 20 2 11 10 33 20 50 22 42 4
54 7 60 14 3 4 22 14 43 22 37 16 57 41 42 55 -4 4 -10 1 -12 -5 -7 -20 -31
-15 -38 6 -4 13 -13 18 -26 16 -26 -5 -70 15 -62 28 4 6 -5 8 -25 4 -24 -5
-32 -3 -32 8 0 7 -7 21 -16 29 -8 9 -13 20 -9 25 3 5 1 12 -4 16 -5 3 -15 -3
-21 -12 -9 -15 -10 -14 -4 6 5 21 3 23 -15 18 -11 -3 -21 -1 -21 3 0 4 -10 6
-22 2 -14 -3 -19 -2 -14 7 4 6 0 18 -8 27 -9 9 -14 19 -11 24 3 5 1 11 -5 15
-14 9 6 44 44 77 19 17 24 25 12 21 -16 -5 -17 -3 -8 14 6 11 9 23 5 26 -3 4
6 11 21 16 33 13 33 26 -1 57 -16 14 -22 23 -15 19 11 -6 42 16 42 30 0 13
-31 36 -50 38 -25 2 -27 17 -2 18 9 0 85 5 167 10 189 11 186 11 213 4 18 -4
22 -1 22 20 0 24 -2 25 -67 25 -40 0 -63 -4 -55 -9 10 -6 10 -10 -2 -20 -11
-10 -27 -10 -73 0 -32 6 -68 12 -81 13 -27 3 -55 26 -32 26 13 0 13 2 0 10
-13 9 -13 10 0 10 9 0 21 -5 28 -12 9 -9 12 -8 12 4 0 12 6 15 23 11 41 -10 4
14 -56 36 -53 19 -60 20 -80 6 -24 -17 -73 -20 -82 -5 -3 6 -15 10 -26 10 -10
0 -19 5 -19 11 0 6 -6 9 -12 6 -18 -6 -50 12 -43 24 11 17 71 10 90 -11 22
-25 96 -28 115 -5 7 8 9 15 5 15 -5 0 0 9 10 20 11 12 20 35 22 53 2 18 5 48
7 67 2 19 4 38 5 41 1 3 18 6 38 7 47 2 72 24 53 46 -26 32 -110 8 -110 -32 0
-15 -57 -52 -79 -52 -12 0 -106 87 -107 100 -1 5 -2 17 -3 26 0 8 -5 12 -11 9
-5 -3 -10 -1 -10 6 0 8 -6 7 -17 -3 -10 -9 -29 -19 -43 -23 -14 -4 -30 -15
-36 -23 -10 -14 -13 -14 -25 -1 -28 28 -23 66 14 104 34 35 67 46 67 23 0 -7
9 -4 20 8 17 17 19 25 10 50 -9 26 -15 30 -37 26 -14 -3 -34 -12 -43 -21 -36
-34 -65 -56 -72 -53 -5 1 -8 -5 -8 -14 0 -8 -4 -12 -10 -9 -15 10 -18 -83 -2
-95 4 -3 8 -9 8 -15 1 -5 4 -21 7 -35 6 -23 5 -22 -5 3 -7 15 -15 27 -20 27
-11 0 -10 -14 2 -26 5 -5 10 -24 12 -42 1 -17 5 -32 9 -32 4 0 5 -9 2 -20 -6
-23 -33 -27 -33 -5 0 20 -12 19 -41 -3 -23 -16 -57 -19 -157 -14 -25 2 -32 6
-30 19 4 25 -38 30 -62 8 -29 -26 -41 -10 -24 30 18 43 17 61 -1 20 -12 -27
-14 -28 -21 -11 -5 13 -3 21 4 24 7 2 12 8 12 14 0 12 -52 1 -61 -13 -3 -6
-11 -4 -17 4 -10 11 -7 19 13 39 24 24 24 26 6 31 -14 3 -18 1 -14 -9 10 -27
-18 -13 -37 19 -11 17 -22 30 -24 27 -2 -3 -8 -2 -12 3 -4 4 -1 7 7 7 11 0 11
2 -1 10 -12 8 -12 10 -1 10 11 0 10 4 -3 19 -21 23 -28 73 -12 83 8 6 8 8 -1
8 -8 0 -9 9 -2 32 5 19 5 34 0 36 -5 2 -7 12 -4 23 4 15 2 18 -12 12 -14 -5
-16 -3 -9 8 5 8 9 23 9 34 0 11 4 26 8 33 5 6 6 12 3 12 -3 0 2 9 11 20 20 22
51 27 58 8 3 -8 22 -13 45 -12 27 0 37 -3 31 -10 -7 -8 11 -12 57 -14 47 -2
69 -8 79 -20 7 -9 13 -12 13 -7 0 13 40 15 40 2 0 -4 5 -5 10 -2 6 4 8 10 5
15 -3 5 7 5 22 1 16 -4 33 -6 38 -6 85 11 125 19 125 24 0 4 10 7 23 6 12 -1
29 2 37 6 8 5 32 15 53 23 26 11 37 21 37 35 0 12 6 21 14 21 8 0 18 5 22 12
5 8 2 9 -9 5 -10 -3 -17 -2 -17 2 0 5 5 11 11 13 6 2 13 22 15 43 2 22 8 41
14 43 12 4 14 52 2 52 -4 0 -14 16 -21 36 -7 19 -19 38 -27 41 -8 3 -14 10
-14 15 0 6 -13 23 -29 39 -16 15 -27 30 -24 33 7 6 -32 16 -77 19 -19 1 -41 8
-48 15 -15 14 -42 16 -42 3 0 -9 -47 -1 -92 17 -22 9 -26 9 -21 -3 3 -8 0 -15
-6 -15 -6 0 -11 7 -11 16 0 13 -3 14 -14 5 -10 -9 -29 -10 -65 -3 -39 7 -55 6
-68 -4 -23 -17 -36 -18 -30 0 4 9 0 12 -12 9 -13 -3 -20 3 -24 19 -10 35 -9
38 13 38 11 0 20 -5 20 -11 0 -5 5 -7 10 -4 6 3 10 13 10 21 0 9 -5 12 -11 8
-7 -4 -9 -2 -5 7 3 8 9 22 12 32 4 9 13 17 20 17 17 0 18 -16 2 -24 -7 -3 -4
-5 7 -3 20 2 36 47 17 47 -6 0 -13 7 -16 16 -5 12 -2 15 10 10 11 -4 22 1 31
14 15 21 43 27 43 10 0 -15 26 -12 39 4 9 10 26 13 54 11 37 -4 39 -3 17 6
-23 10 -24 11 -8 23 10 7 15 15 12 18 -3 3 12 9 33 13 21 4 46 14 56 22 10 10
17 12 17 5 0 -17 30 -15 36 3 3 8 14 17 25 20 16 5 17 10 8 27 -6 12 -7 18 -1
14 5 -3 17 6 26 20 10 13 28 29 42 34 16 6 22 14 18 22 -5 7 -2 9 8 6 10 -4
14 0 14 16 -1 16 5 21 22 20 12 0 22 4 22 10 0 6 5 4 10 -4 8 -13 10 -12 10 3
0 10 8 17 20 17 12 0 32 11 44 24 28 27 65 39 82 25 8 -6 15 -4 24 6 7 8 24
15 39 15 15 0 31 4 37 10 15 15 72 19 79 6 3 -8 7 -7 11 2 3 6 10 10 15 6 5
-3 9 0 9 6 0 6 5 8 10 5 8 -5 7 -11 -1 -21 -9 -11 -7 -14 10 -14 12 0 21 6 21
15 0 8 7 15 15 15 8 0 15 5 15 10 0 18 45 11 63 -10 13 -16 22 -18 36 -11 10
6 20 8 23 6 9 -9 88 -11 88 -3 0 5 5 6 10 3 6 -4 7 -11 4 -17 -4 -6 -2 -8 4
-4 6 3 13 2 17 -4 3 -5 0 -10 -7 -10 -9 0 -9 -3 2 -10 8 -5 28 -10 43 -10 24
0 31 -7 49 -47 12 -27 21 -53 21 -60 0 -7 3 -10 7 -8 11 7 51 -35 45 -45 -6
-9 11 -49 24 -60 7 -6 42 -98 47 -125 2 -11 11 -47 19 -80 9 -33 17 -71 19
-85 10 -73 31 -183 47 -246 10 -39 20 -90 23 -115 3 -24 13 -103 21 -175 12
-99 14 -149 7 -201 -12 -82 -6 -124 14 -116 8 3 14 13 14 22 0 12 -2 13 -9 3
-5 -8 -8 10 -9 48 -1 43 3 63 13 66 7 3 16 22 20 42 8 48 35 83 77 99 l33 12
-37 -5 c-33 -6 -38 -4 -38 14 0 24 25 52 48 53 62 5 72 -14 72 -133 0 -92 -2
-103 -34 -166 -22 -45 -35 -87 -39 -128 -5 -64 -21 -102 -60 -144 -29 -32
-126 -114 -151 -127 -25 -14 -79 -163 -60 -163 8 0 14 -7 14 -15 0 -8 5 -15
10 -15 17 0 11 -22 -12 -41 -27 -24 -31 -24 -23 0 10 33 -31 13 -60 -29 -30
-43 -31 -50 -40 -188 -5 -84 -4 -102 7 -96 7 5 5 -4 -5 -19 -16 -24 -18 -48
-16 -170 l2 -142 35 -33 c60 -57 205 -123 307 -140 50 -8 103 -16 119 -17 17
-1 32 -8 35 -16 6 -18 32 -38 50 -39 8 0 35 -13 60 -28 76 -46 175 -86 179
-73 6 18 32 13 32 -7 0 -18 25 -28 229 -92 111 -36 93 -44 214 105 267 330
443 721 518 1147 89 511 9 1052 -227 1527 -247 498 -637 886 -1139 1131 -175
86 -423 175 -457 164 -12 -3 -24 -1 -28 5 -9 16 -112 42 -175 46 -27 1 -58 6
-67 10 -27 11 -45 -1 -53 -34 -4 -18 -13 -31 -22 -31 -11 0 -13 5 -8 18 4 9 7
25 7 35 0 9 3 15 8 12 5 -3 11 -1 14 3 3 5 -23 12 -57 16 -82 8 -339 15 -402
10z m541 -213 c2 -83 -20 -76 -24 8 -2 48 0 62 10 59 9 -3 13 -26 14 -67z
m-246 25 c0 -9 -13 -7 -29 3 -7 5 -10 14 -7 20 5 8 11 7 22 -3 8 -8 14 -17 14
-20z m390 4 c3 -1 8 -2 13 -1 13 2 7 -8 -12 -18 -14 -8 -22 -6 -35 8 -15 17
-15 18 6 15 13 -1 25 -3 28 -4z m-410 -20 c0 -5 -5 -10 -11 -10 -5 0 -7 5 -4
10 3 6 8 10 11 10 2 0 4 -4 4 -10z m100 -25 c0 -18 -4 -23 -15 -19 -8 4 -15
15 -15 25 0 10 7 19 15 19 9 0 15 -9 15 -25z m355 -9 c0 -13 -3 -27 -6 -30
-10 -11 -32 23 -25 39 9 24 32 18 31 -9z m-45 -1 c0 -8 -7 -15 -15 -15 -16 0
-20 12 -8 23 11 12 23 8 23 -8z m73 -5 c3 -11 1 -20 -4 -20 -5 0 -9 9 -9 20 0
11 2 20 4 20 2 0 6 -9 9 -20z m-473 -7 c0 -13 3 -14 12 -5 17 17 28 15 28 -4
0 -13 -7 -15 -30 -11 -26 6 -31 3 -36 -18 -3 -14 -10 -22 -15 -20 -10 7 20 75
33 75 4 0 8 -8 8 -17z m389 -19 c2 -2 2 -6 0 -9 -8 -7 -49 7 -49 17 0 8 38 2
49 -8z m495 -10 c3 -8 2 -12 -4 -9 -6 3 -10 10 -10 16 0 14 7 11 14 -7z m-728
-21 c-10 -10 -19 5 -10 18 6 11 8 11 12 0 2 -7 1 -15 -2 -18z m90 0 c3 -16 8
-34 10 -41 5 -16 -13 -52 -26 -52 -5 0 -9 27 -9 60 1 62 14 80 25 33z m592 4
c14 -18 21 -57 10 -57 -5 0 -6 -4 -3 -10 3 -5 1 -10 -5 -10 -7 0 -10 7 -6 15
3 9 -6 23 -24 37 -16 11 -27 24 -25 27 7 12 43 10 53 -2z m-738 -7 c0 -5 -4
-10 -10 -10 -5 0 -10 5 -10 10 0 6 5 10 10 10 6 0 10 -4 10 -10z m660 -30 c0
-5 -5 -10 -11 -10 -6 0 -9 -7 -5 -15 3 -8 2 -15 -3 -15 -16 0 -19 13 -8 31 13
20 27 25 27 9z m-600 -7 c0 -5 -5 -15 -10 -23 -8 -12 -10 -11 -10 8 0 12 5 22
10 22 6 0 10 -3 10 -7z m190 -63 c0 -5 -5 -10 -11 -10 -5 0 -7 5 -4 10 3 6 8
10 11 10 2 0 4 -4 4 -10z m478 -2 c-6 -18 -28 -21 -28 -4 0 9 7 16 16 16 9 0
14 -5 12 -12z m212 -48 c0 -5 -5 -10 -11 -10 -5 0 -7 5 -4 10 3 6 8 10 11 10
2 0 4 -4 4 -10z m-260 -4 c0 -2 -7 -9 -15 -16 -12 -10 -15 -10 -15 4 0 9 7 16
15 16 8 0 15 -2 15 -4z m294 -4 c3 -5 -1 -9 -9 -9 -8 0 -12 4 -9 9 3 4 7 8 9
8 2 0 6 -4 9 -8z m66 -13 c0 -5 -4 -9 -10 -9 -5 0 -10 7 -10 16 0 8 5 12 10 9
6 -3 10 -10 10 -16z m-409 -27 c-5 -9 -14 -29 -22 -44 -7 -16 -16 -28 -21 -28
-14 0 -9 27 12 53 11 14 20 30 20 37 0 6 4 8 10 5 6 -3 6 -13 1 -23z m379 -8
c0 -2 -7 -4 -15 -4 -8 0 -15 4 -15 10 0 5 7 7 15 4 8 -4 15 -8 15 -10z m-356
-39 c-4 -8 -8 -15 -10 -15 -2 0 -4 7 -4 15 0 8 4 15 10 15 5 0 7 -7 4 -15z
m668 -143 c-15 -11 -17 -10 -20 8 -2 12 -1 29 3 38 5 14 9 13 20 -8 12 -22 12
-27 -3 -38z m-292 18 c0 -5 -4 -10 -10 -10 -5 0 -10 5 -10 10 0 6 5 10 10 10
6 0 10 -4 10 -10z m197 -83 c-6 -20 -27 -19 -27 2 0 14 5 19 15 14 9 -3 14
-10 12 -16z m-287 -36 c0 -6 -4 -13 -10 -16 -5 -3 -10 1 -10 9 0 9 5 16 10 16
6 0 10 -4 10 -9z m-2945 -71 c3 -5 1 -10 -4 -10 -6 0 -11 5 -11 10 0 6 2 10 4
10 3 0 8 -4 11 -10z m2930 -20 c3 -5 1 -10 -4 -10 -6 0 -11 5 -11 10 0 6 2 10
4 10 3 0 8 -4 11 -10z m-2774 -20 c21 0 7 -15 -16 -16 -16 -1 -25 3 -25 13 0
10 6 13 16 9 9 -3 20 -6 25 -6z m-230 -23 c-13 -13 -26 -3 -16 12 3 6 11 8 17
5 6 -4 6 -10 -1 -17z m34 -7 c3 -5 1 -10 -4 -10 -6 0 -11 5 -11 10 0 6 2 10 4
10 3 0 8 -4 11 -10z m79 -15 c3 -8 9 -15 13 -14 4 1 15 1 23 -1 11 -1 9 -4 -5
-9 -11 -5 -23 -7 -27 -4 -14 7 -29 43 -19 43 5 0 11 -7 15 -15z m101 -5 c3 -5
1 -10 -4 -10 -6 0 -11 5 -11 10 0 6 2 10 4 10 3 0 8 -4 11 -10z m3061 -5 c-17
-17 -52 -20 -61 -5 -3 5 0 7 9 4 8 -3 23 -1 33 5 26 15 37 13 19 -4z m239 -29
c-19 -29 -32 -28 -20 1 8 18 12 28 14 40 0 4 6 2 12 -4 8 -8 6 -18 -6 -37z
m-310 -5 c3 -6 -3 -15 -14 -20 -11 -6 -27 -18 -35 -27 -15 -14 -16 -14 -16 1
0 17 -21 16 -27 -1 -6 -17 42 -34 57 -21 10 9 11 9 8 -3 -3 -9 -15 -14 -31
-12 -15 1 -40 -4 -56 -13 -40 -20 -44 -19 -58 12 -16 33 -17 63 -2 63 5 0 7 5
3 12 -4 7 -3 8 5 4 6 -4 9 -11 6 -16 -10 -16 12 -20 25 -5 8 9 21 13 36 9 18
-5 24 -2 24 10 0 12 9 16 34 16 19 0 37 -4 41 -9z m436 -28 c-8 -15 -10 -15
-11 -2 0 17 10 32 18 25 2 -3 -1 -13 -7 -23z m-634 -49 c-2 -3 -11 -2 -20 2
-16 6 -12 33 7 46 11 7 23 -39 13 -48z m283 46 c0 -5 -2 -10 -4 -10 -2 0 -12
-3 -22 -7 -16 -6 -17 -5 -4 10 17 19 30 22 30 7z m-3130 -33 c0 -7 -4 -6 -10
3 -8 12 -13 13 -30 3 -29 -19 -36 -16 -15 7 13 15 22 17 36 9 11 -5 19 -15 19
-22z m3204 -8 c12 -11 -19 -23 -39 -15 -11 4 -15 -1 -15 -17 0 -16 -3 -18 -9
-8 -6 9 -11 10 -15 2 -15 -24 -24 1 -10 29 13 26 19 29 47 23 18 -3 36 -9 41
-14z m-139 -8 c-2 -5 4 -20 15 -34 24 -30 25 -37 5 -37 -8 0 -15 8 -15 18 0 9
-9 23 -20 30 -26 16 -25 27 0 29 11 1 18 -2 15 -6z m45 -1 c0 -5 -7 -10 -16
-10 -8 0 -12 5 -9 10 3 6 10 10 16 10 5 0 9 -4 9 -10z m185 -8 c9 -23 -5 -30
-53 -24 -35 3 -41 7 -31 18 6 8 15 11 20 8 5 -3 9 -2 9 3 0 15 49 11 55 -5z
m-3555 -2 c0 -5 -2 -10 -4 -10 -3 0 -8 5 -11 10 -3 6 -1 10 4 10 6 0 11 -4 11
-10z m44 -26 c20 -8 21 -24 2 -24 -8 0 -16 7 -20 15 -6 17 -4 18 18 9z m-64
-14 c0 -5 -2 -10 -4 -10 -3 0 -8 5 -11 10 -3 6 -1 10 4 10 6 0 11 -4 11 -10z
m3588 -23 c4 -21 -27 -35 -38 -16 -7 10 -12 6 -21 -14 -7 -15 -16 -27 -22 -27
-14 0 2 53 21 68 22 17 56 11 60 -11z m-3518 -7 c0 -7 -24 -20 -36 -20 -2 0
-4 9 -4 19 0 14 5 18 20 14 11 -3 20 -9 20 -13z m183 13 c-7 -2 -13 -9 -13
-14 0 -6 6 -7 13 -3 6 4 2 -4 -10 -17 -18 -19 -25 -21 -35 -11 -10 10 -10 15
2 22 8 5 11 10 7 10 -5 0 -5 5 -2 10 3 6 16 10 28 9 12 0 16 -3 10 -6z m107
-29 c0 -8 -4 -14 -10 -14 -5 0 -10 9 -10 21 0 11 5 17 10 14 6 -3 10 -13 10
-21z m1555 16 c-3 -5 -12 -10 -18 -10 -7 0 -6 4 3 10 19 12 23 12 15 0z
m-1932 -59 c-6 -3 -13 -16 -17 -27 -5 -16 -14 -21 -36 -20 -17 1 -30 5 -30 9
0 4 0 12 0 17 0 17 28 11 40 -7 11 -17 11 -17 6 0 -3 10 2 29 11 43 15 23 17
24 26 9 6 -11 6 -20 0 -24z m57 9 c0 -6 10 -10 21 -10 19 0 20 -2 8 -16 -8
-10 -15 -12 -17 -5 -2 6 -10 11 -18 11 -8 0 -14 8 -14 18 0 14 -2 15 -10 2 -8
-12 -10 -11 -10 8 0 20 3 21 20 12 11 -6 20 -15 20 -20z m330 -40 c0 -5 -4
-10 -10 -10 -5 0 -10 5 -10 10 0 6 5 10 10 10 6 0 10 -4 10 -10z m-500 -10 c0
-5 -5 -10 -11 -10 -5 0 -7 5 -4 10 3 6 8 10 11 10 2 0 4 -4 4 -10z m240 6 c0
-11 -19 -15 -25 -6 -3 5 1 10 9 10 9 0 16 -2 16 -4z m-180 -77 c0 -4 -7 -6
-15 -3 -8 4 -15 10 -15 15 0 4 7 6 15 3 8 -4 15 -10 15 -15z m447 -5 c-9 -9
-28 6 -21 18 4 6 10 6 17 -1 6 -6 8 -13 4 -17z m-417 6 c0 -5 -4 -10 -10 -10
-5 0 -10 5 -10 10 0 6 5 10 10 10 6 0 10 -4 10 -10z m340 -26 c0 -19 -16 -18
-24 2 -11 27 -7 37 9 24 8 -7 15 -19 15 -26z m-377 -17 c-3 -4 -6 -7 -7 -5 -1
2 -8 12 -16 22 -14 18 -14 18 7 6 12 -8 19 -18 16 -23z m3657 7 c0 -8 -7 -14
-16 -14 -13 0 -14 3 -5 13 6 8 7 18 3 22 -4 5 -1 5 6 1 6 -4 12 -14 12 -22z
m-3745 -3 c-1 -9 2 -19 7 -22 4 -3 -12 -6 -36 -6 -34 -1 -43 2 -39 13 3 8 10
11 16 7 6 -4 8 -1 5 8 -4 10 3 14 22 15 20 1 27 -3 25 -15z m485 -11 c0 -5 -5
-10 -11 -10 -5 0 -7 5 -4 10 3 6 8 10 11 10 2 0 4 -4 4 -10z m3220 0 c0 -5 -2
-10 -4 -10 -3 0 -8 5 -11 10 -3 6 -1 10 4 10 6 0 11 -4 11 -10z m-3446 -45 c3
-8 1 -15 -3 -15 -5 0 -11 7 -15 15 -3 8 -1 15 3 15 5 0 11 -7 15 -15z m176
-27 c0 -13 -23 -5 -28 10 -2 7 2 10 12 6 9 -3 16 -11 16 -16z m40 -14 c0 -8
-4 -12 -10 -9 -5 3 -10 13 -10 21 0 8 5 12 10 9 6 -3 10 -13 10 -21z m3186 -1
c-7 -7 -26 7 -26 19 0 6 6 6 15 -2 9 -7 13 -15 11 -17z m-3432 -26 c-3 -9 -10
-17 -15 -17 -11 0 -12 34 -2 44 11 11 24 -9 17 -27z m1366 23 c0 -5 -2 -10 -4
-10 -3 0 -8 5 -11 10 -3 6 -1 10 4 10 6 0 11 -4 11 -10z m1870 6 c0 -2 -8 -10
-17 -17 -16 -13 -17 -12 -4 4 13 16 21 21 21 13z m-3150 -16 c0 -5 -4 -10 -10
-10 -5 0 -10 5 -10 10 0 6 5 10 10 10 6 0 10 -4 10 -10z m3250 0 c0 -5 -4 -10
-10 -10 -5 0 -10 5 -10 10 0 6 5 10 10 10 6 0 10 -4 10 -10z m-3295 -10 c3 -5
0 -10 -7 -10 -7 0 0 -7 16 -15 33 -18 39 -19 31 -5 -3 6 -1 10 4 10 6 0 11 -9
11 -21 0 -14 -5 -19 -14 -16 -8 3 -17 -1 -20 -9 -5 -13 -9 -13 -31 3 -23 17
-33 52 -18 66 9 10 21 9 28 -3z m145 -9 c0 -4 -6 -13 -12 -19 -10 -10 -10 -15
2 -22 8 -5 11 -12 6 -17 -4 -4 -12 0 -17 10 -6 9 -17 17 -24 17 -8 0 -15 8
-15 18 0 12 9 17 30 18 17 1 30 -2 30 -5z m3210 -1 c0 -5 -2 -10 -4 -10 -3 0
-8 5 -11 10 -3 6 -1 10 4 10 6 0 11 -4 11 -10z m55 -28 c-8 -8 -25 10 -19 20
4 6 9 5 15 -3 4 -7 6 -15 4 -17z m-3540 -2 c3 -5 1 -10 -4 -10 -6 0 -11 5 -11
10 0 6 2 10 4 10 3 0 8 -4 11 -10z m65 0 c0 -5 -4 -10 -10 -10 -5 0 -10 5 -10
10 0 6 5 10 10 10 6 0 10 -4 10 -10z m265 0 c-3 -5 -10 -10 -16 -10 -5 0 -9 5
-9 10 0 6 7 10 16 10 8 0 12 -4 9 -10z m-276 -41 c-15 -9 -32 -2 -24 11 3 5
13 6 21 3 12 -4 13 -8 3 -14z m187 -5 c-3 -9 -6 -18 -6 -20 0 -3 -4 -3 -10 1
-11 7 -2 35 12 35 6 0 7 -7 4 -16z m3807 -17 c-3 -5 -10 -4 -15 1 -6 6 -7 16
-3 22 6 9 9 9 16 -1 4 -7 5 -17 2 -22z m-326 17 c-3 -3 -12 -4 -19 -1 -8 3 -5
6 6 6 11 1 17 -2 13 -5z m-3356 -37 c-8 -8 -11 -7 -11 4 0 20 13 34 18 19 3
-7 -1 -17 -7 -23z m3259 23 c0 -5 -4 -10 -10 -10 -5 0 -10 5 -10 10 0 6 5 10
10 10 6 0 10 -4 10 -10z m-3672 -15 c3 -3 -13 -5 -36 -5 -23 0 -42 4 -42 8 0
9 69 6 78 -3z m198 -74 c-4 -5 0 -11 6 -14 7 -2 9 -8 5 -13 -5 -5 -22 7 -39
26 -16 19 -32 34 -34 33 -12 -8 -24 -1 -24 13 0 10 6 14 15 10 8 -3 15 -1 15
3 0 5 14 -4 31 -20 17 -16 28 -33 25 -38z m110 42 l-7 -28 23 27 c21 25 25 26
42 13 11 -8 17 -18 13 -21 -4 -4 -13 -2 -20 4 -20 17 -30 2 -12 -18 14 -15 13
-19 -5 -35 -20 -18 -50 -15 -50 5 0 6 6 8 13 4 6 -3 -1 5 -18 19 -30 25 -30
26 -10 41 29 23 38 19 31 -11z m-106 7 c0 -5 -4 -10 -10 -10 -5 0 -10 5 -10
10 0 6 5 10 10 10 6 0 10 -4 10 -10z m3795 0 c3 -5 1 -10 -4 -10 -6 0 -11 5
-11 10 0 6 2 10 4 10 3 0 8 -4 11 -10z m-3778 -22 c-3 -8 -6 -5 -6 6 -1 11 2
17 5 13 3 -3 4 -12 1 -19z m3556 6 c8 -8 -3 -34 -14 -34 -5 0 -9 9 -9 20 0 19
11 26 23 14z m-3763 -14 c0 -5 6 -7 14 -4 9 3 21 -5 31 -20 13 -19 14 -29 5
-46 -6 -11 -15 -18 -21 -14 -6 4 -6 11 1 19 8 10 9 19 1 32 -6 10 -11 14 -11
10 0 -4 -9 -3 -20 3 -16 9 -18 8 -14 -5 8 -19 0 -19 -20 1 -9 8 -14 20 -11 25
8 12 45 12 45 -1z m120 -26 c0 -8 -4 -12 -10 -9 -5 3 -10 10 -10 16 0 5 5 9
10 9 6 0 10 -7 10 -16z m-152 -22 c2 -7 -2 -10 -12 -6 -9 3 -16 11 -16 16 0
13 23 5 28 -10z m4052 8 c0 -5 -2 -10 -4 -10 -3 0 -8 5 -11 10 -3 6 -1 10 4
10 6 0 11 -4 11 -10z m-3996 -52 c13 -22 9 -25 -34 -30 -30 -3 -35 0 -38 20
-3 21 -1 23 18 17 16 -5 20 -4 15 5 -5 8 -1 11 10 8 10 -1 23 -11 29 -20z
m144 -13 c-3 -3 -9 2 -12 12 -6 14 -5 15 5 6 7 -7 10 -15 7 -18z m42 -11 c0
-8 -4 -12 -10 -9 -5 3 -10 13 -10 21 0 8 5 12 10 9 6 -3 10 -13 10 -21z m-410
0 c0 -8 -5 -12 -10 -9 -6 4 -8 11 -5 16 9 14 15 11 15 -7z m-68 -34 c3 -16 2
-30 -1 -30 -11 0 -32 41 -26 50 11 19 23 10 27 -20z m38 10 c0 -11 -4 -20 -9
-20 -14 0 -23 18 -16 30 10 17 25 11 25 -10z m360 -81 c0 -5 -2 -9 -4 -9 -8 0
-56 50 -56 58 0 5 -7 15 -15 22 -8 7 -15 17 -15 22 0 6 20 -11 45 -36 25 -26
45 -52 45 -57z m162 56 c9 -12 -11 -25 -27 -18 -7 2 -12 15 -12 29 0 21 2 23
16 12 9 -7 19 -17 23 -23z m-79 4 c4 -14 1 -16 -16 -10 -28 10 -32 27 -8 27
11 0 22 -8 24 -17z m-444 -48 c6 -10 7 -21 4 -25 -9 -8 -33 14 -33 30 0 20 18
17 29 -5z m555 -12 c-4 -6 -11 -6 -20 2 -21 17 -17 31 6 19 11 -6 18 -15 14
-21z m3496 2 c0 -14 -39 -57 -40 -44 0 6 7 19 16 27 8 9 12 21 8 27 -4 8 -3 9
4 5 7 -4 12 -11 12 -15z m6 -57 c-3 -8 -10 -12 -16 -9 -7 4 -6 14 2 28 12 24
24 8 14 -19z m-3609 6 c8 0 11 -5 8 -11 -8 -12 -65 -2 -80 13 -7 7 1 9 24 4
18 -3 40 -6 48 -6z m-255 -25 c-3 -18 -11 -25 -28 -25 -28 0 -24 20 9 36 12 7
23 12 23 13 1 0 -1 -10 -4 -24z m3793 16 c3 -5 1 -12 -5 -16 -5 -3 -10 1 -10
9 0 18 6 21 15 7z m105 -1 c0 -5 -4 -10 -10 -10 -5 0 -10 5 -10 10 0 6 5 10
10 10 6 0 10 -4 10 -10z m-4095 -30 c18 -35 19 -50 3 -50 -24 0 -38 16 -44 48
-9 43 19 44 41 2z m4275 20 c0 -5 -4 -10 -10 -10 -5 0 -10 5 -10 10 0 6 5 10
10 10 6 0 10 -4 10 -10z m-57 -7 c3 -5 -8 -9 -24 -10 -17 -1 -27 2 -24 7 7 12
42 13 48 3z m-4117 -38 c-3 -8 -1 -15 5 -15 6 0 7 -5 4 -10 -4 -6 -11 -8 -16
-5 -13 9 -11 45 2 45 6 0 9 -7 5 -15z m-163 -1 c9 -9 -4 -35 -14 -28 -5 3 -9
12 -9 20 0 14 12 19 23 8z m1976 -22 c10 -18 -17 -62 -38 -62 -14 0 -14 17 -1
25 6 3 10 17 10 31 0 28 15 32 29 6z m-1599 -7 c-7 -9 -15 -13 -19 -10 -3 3 1
10 9 15 21 14 24 12 10 -5z m365 6 c3 -5 1 -12 -4 -15 -5 -3 -11 1 -15 9 -6
16 9 21 19 6z m-545 -20 c0 -5 -7 -11 -15 -15 -15 -5 -20 5 -8 17 9 10 23 9
23 -2z m200 -1 c0 -5 -5 -10 -11 -10 -5 0 -7 5 -4 10 3 6 8 10 11 10 2 0 4 -4
4 -10z m-50 -19 c0 -11 -39 -41 -53 -41 -11 0 35 50 46 50 4 0 7 -4 7 -9z
m107 -37 c-3 -3 -12 -4 -19 -1 -8 3 -5 6 6 6 11 1 17 -2 13 -5z m133 -13 c0
-17 -15 -19 -28 -5 -11 12 -9 14 8 14 11 0 20 -4 20 -9z m-350 -11 c12 -8 11
-10 -7 -10 -13 0 -23 5 -23 10 0 13 11 13 30 0z m172 -42 c-7 -7 -12 -8 -12
-2 0 14 12 26 19 19 2 -3 -1 -11 -7 -17z m218 -43 c0 -15 -18 -1 -28 20 -19
42 -14 53 8 17 11 -18 20 -35 20 -37z m45 55 c3 -5 1 -10 -4 -10 -6 0 -11 5
-11 10 0 6 2 10 4 10 3 0 8 -4 11 -10z m-160 -78 c4 -12 3 -12 -9 -3 -11 9
-15 9 -18 -1 -4 -11 -8 -11 -21 0 -9 8 -13 20 -11 27 7 17 50 0 59 -23z m212
4 c0 -17 -2 -23 -4 -13 -5 19 -28 23 -38 7 -4 -6 -12 -4 -21 5 -21 21 -10 33
30 32 30 -1 33 -4 33 -31z m3387 18 c10 -25 -1 -29 -14 -5 -6 12 -7 21 -1 21
5 0 12 -7 15 -16z m-3494 -34 c0 -5 -4 -10 -10 -10 -5 0 -10 5 -10 10 0 6 5
10 10 10 6 0 10 -4 10 -10z m-80 -24 c-7 -9 -5 -19 5 -32 8 -10 15 -14 15 -7
0 7 7 10 15 7 8 -4 15 -1 15 6 0 6 5 8 10 5 26 -16 8 -33 -35 -33 -25 -1 -45
3 -45 8 0 6 -5 10 -10 10 -6 0 -8 -17 -5 -42 4 -34 3 -38 -4 -20 -12 25 -20
27 -55 11 -21 -10 -23 -15 -15 -30 5 -11 16 -19 24 -19 8 0 15 -5 15 -11 0 -6
7 -9 15 -6 8 4 17 2 20 -4 4 -5 -1 -12 -10 -15 -10 -4 -15 -14 -12 -25 7 -26
-10 -24 -18 1 -4 12 -16 20 -28 21 -21 0 -21 1 -2 9 11 5 16 9 10 10 -18 4
-40 7 -57 8 -10 1 -18 9 -18 17 0 8 -4 15 -10 15 -5 0 -10 4 -10 8 0 13 33 11
49 -2 12 -9 13 -8 8 7 -4 10 -2 17 5 17 16 0 48 31 48 47 0 7 -10 13 -22 13
-16 0 -19 -3 -10 -8 18 -12 4 -45 -16 -37 -8 3 -19 0 -24 -7 -6 -10 -10 -10
-17 2 -6 9 -6 19 0 26 7 8 6 13 -1 16 -6 2 -4 12 6 26 14 20 21 22 65 16 29
-4 49 -3 49 3 0 5 14 8 30 5 23 -3 28 -8 20 -16z m206 -13 c-10 -10 -19 5 -10
18 6 11 8 11 12 0 2 -7 1 -15 -2 -18z m-416 2 c0 -8 -2 -15 -4 -15 -2 0 -11
-3 -19 -6 -12 -4 -14 0 -10 15 6 24 33 29 33 6z m213 -85 c3 -11 1 -23 -4 -26
-5 -3 -9 6 -9 20 0 31 6 34 13 6z m857 -22 c0 -4 -4 -8 -9 -8 -5 0 -7 -9 -4
-20 3 -11 1 -20 -5 -20 -6 0 -14 -20 -17 -44 -9 -56 26 -119 62 -113 19 4 25
-2 34 -35 5 -21 9 -47 8 -56 -1 -9 3 -30 9 -45 17 -41 15 -50 -8 -34 -38 27
-79 89 -101 154 -20 60 -21 72 -10 147 6 44 12 89 13 99 2 17 3 17 15 1 7 -10
13 -21 13 -26z m-1400 22 c0 -5 -5 -10 -11 -10 -5 0 -7 5 -4 10 3 6 8 10 11
10 2 0 4 -4 4 -10z m1304 -6 c3 -8 2 -12 -4 -9 -6 3 -10 10 -10 16 0 14 7 11
14 -7z m3346 12 c0 -3 -4 -8 -10 -11 -5 -3 -10 -1 -10 4 0 6 5 11 10 11 6 0
10 -2 10 -4z m-4164 -43 c-8 -8 -36 10 -36 25 0 13 3 12 20 -3 11 -10 18 -20
16 -22z m145 12 c14 5 17 2 13 -9 -4 -10 -1 -16 7 -16 7 0 10 -2 8 -4 -3 -3
-22 -1 -43 4 -30 7 -36 6 -32 -6 3 -8 1 -14 -4 -14 -11 0 -12 15 -4 47 5 20 8
21 21 7 9 -8 23 -12 34 -9z m-361 -16 c0 -6 -4 -7 -10 -4 -5 3 -10 11 -10 16
0 6 5 7 10 4 6 -3 10 -11 10 -16z m45 -16 c-4 -54 -3 -53 -20 -53 -18 0 -19
16 -4 59 15 42 27 39 24 -6z m-237 0 c18 -20 20 -28 11 -39 -6 -7 -9 -21 -5
-29 4 -13 2 -14 -14 -5 -11 6 -20 8 -20 5 0 -3 -9 -1 -20 5 -19 10 -26 43 -15
73 9 21 37 17 63 -10z m672 7 c0 -5 -2 -10 -4 -10 -3 0 -8 5 -11 10 -3 6 -1
10 4 10 6 0 11 -4 11 -10z m-203 -49 c-4 -19 -2 -31 6 -35 12 -4 -44 -10 -73
-7 -27 3 51 -40 83 -46 36 -7 48 -19 40 -41 -5 -12 -7 -12 -14 1 -5 8 -24 18
-43 21 -19 4 -37 13 -40 21 -6 17 -56 21 -56 5 0 -5 -8 -19 -17 -30 -13 -14
-20 -17 -30 -8 -20 16 -16 30 7 23 14 -5 20 -2 20 9 0 9 -4 16 -10 16 -5 0
-10 7 -10 15 0 8 7 15 15 15 8 0 15 4 15 9 0 6 15 7 34 4 29 -4 34 -2 33 13
-1 13 4 18 16 16 9 -2 17 1 16 5 -2 14 1 23 7 23 4 0 4 -13 1 -29z m63 -1 c0
-5 -6 -10 -12 -10 -8 -1 -5 -6 5 -15 18 -13 18 -14 -2 -25 -12 -6 -21 -7 -22
-3 -4 32 -3 49 6 55 14 11 25 10 25 -2z m144 -19 c3 -5 -1 -11 -9 -15 -9 -3
-15 0 -15 9 0 16 16 20 24 6z m-364 -19 c0 -15 -11 -21 -27 -15 -12 5 -12 7
-1 14 17 11 28 11 28 1z m-100 -22 c21 14 30 12 24 -4 -7 -19 -46 -28 -56 -13
-12 19 -9 30 5 19 8 -7 18 -7 27 -2z m-216 -49 c19 -37 29 -108 14 -93 -15 15
-55 16 -63 2 -15 -24 -22 -6 -18 43 6 68 21 101 40 85 8 -6 20 -23 27 -37z
m546 39 c0 -5 -4 -10 -10 -10 -5 0 -10 5 -10 10 0 6 5 10 10 10 6 0 10 -4 10
-10z m1565 -10 c3 -6 -1 -7 -9 -4 -18 7 -21 14 -7 14 6 0 13 -4 16 -10z m-645
-12 c0 -4 -4 -8 -9 -8 -6 0 -12 4 -15 8 -3 5 1 9 9 9 8 0 15 -4 15 -9z m-1646
-17 c13 -14 14 -21 6 -26 -7 -4 -16 -2 -20 5 -6 10 -9 9 -13 -1 -2 -8 -4 -2
-3 13 1 33 7 35 30 9z m406 9 c0 -5 -2 -10 -4 -10 -3 0 -8 5 -11 10 -3 6 -1
10 4 10 6 0 11 -4 11 -10z m190 0 c0 -5 -4 -10 -10 -10 -5 0 -10 5 -10 10 0 6
5 10 10 10 6 0 10 -4 10 -10z m178 -31 c0 -17 -2 -29 -4 -26 -9 8 -44 -26 -44
-43 -1 -13 -2 -12 -10 2 -11 18 -4 48 11 48 5 0 9 11 9 25 0 18 5 25 18 25 14
0 19 -8 20 -31z m-128 17 c0 -3 -4 -8 -10 -11 -5 -3 -10 -1 -10 4 0 6 5 11 10
11 6 0 10 -2 10 -4z m-60 -34 c0 -15 -2 -15 -10 -2 -13 20 -13 33 0 25 6 -3
10 -14 10 -23z m3290 13 c0 -1 -9 -5 -19 -8 -13 -3 -18 -1 -14 9 4 10 33 10
33 -1z m-3065 -5 c3 -5 1 -10 -4 -10 -6 0 -11 5 -11 10 0 6 2 10 4 10 3 0 8
-4 11 -10z m-265 -46 c0 -2 -8 -1 -17 2 -10 2 -8 -1 5 -7 13 -7 21 -18 18 -26
-3 -7 1 -13 10 -13 8 0 12 -5 9 -10 -4 -7 -11 -8 -18 -1 -7 5 -23 11 -37 13
-17 2 -26 10 -28 26 -2 12 2 22 8 22 6 0 8 5 5 10 -14 23 8 30 26 9 10 -12 19
-23 19 -25z m3057 11 c0 -8 -6 -15 -14 -15 -7 0 -13 9 -13 20 0 12 5 17 13 14
8 -3 14 -11 14 -19z m-3004 -22 c4 -27 4 -27 12 -5 10 29 22 28 27 -3 4 -21 1
-25 -18 -25 -12 0 -26 6 -31 13 -12 19 -14 47 -4 47 5 0 12 -12 14 -27z m-404
-37 c19 -18 27 -34 24 -47 -3 -10 -9 -16 -14 -13 -5 2 -14 -4 -21 -16 -7 -11
-21 -20 -31 -20 -10 0 -22 -10 -27 -22 -8 -22 -9 -22 -9 5 -1 16 4 26 12 25
12 -3 13 17 1 64 -14 60 16 71 65 24z m648 28 c-3 -3 -12 -4 -19 -1 -8 3 -5 6
6 6 11 1 17 -2 13 -5z m-443 -32 c-22 -5 -31 7 -14 18 9 6 17 5 22 -3 4 -7 1
-13 -8 -15z m1422 3 c-4 -11 0 -15 11 -13 9 2 18 -3 20 -9 3 -7 -3 -13 -11
-13 -9 0 -19 -7 -22 -15 -10 -26 -27 -17 -20 11 6 23 4 26 -11 20 -12 -4 -9 1
7 14 30 24 34 24 26 5z m-1156 -25 c0 -11 -4 -20 -9 -20 -11 0 -22 26 -14 34
12 12 23 5 23 -14z m1096 -6 c4 -17 2 -29 -7 -34 -9 -6 -10 -12 -1 -22 7 -9 8
-19 2 -28 -8 -12 -10 -10 -10 7 0 12 -5 25 -11 29 -8 5 -6 10 5 16 20 11 21
38 1 38 -8 0 -15 5 -15 10 0 22 30 8 36 -16z m-1141 6 c3 -5 -3 -10 -14 -10
-12 0 -21 5 -21 10 0 6 6 10 14 10 8 0 18 -4 21 -10z m288 -5 c4 -8 1 -17 -5
-21 -7 -4 -8 -3 -4 4 13 21 -2 13 -33 -19 -17 -17 -31 -35 -31 -40 0 -5 -4 -9
-9 -9 -5 0 -17 -3 -26 -7 -14 -5 -16 -2 -10 15 4 13 2 22 -4 22 -6 0 -11 -10
-11 -22 0 -18 -2 -20 -10 -8 -6 9 -6 18 0 24 6 6 10 18 10 29 0 10 4 16 9 12
5 -3 12 -1 16 5 3 5 20 7 38 5 18 -3 26 -2 18 1 -11 5 -11 8 0 15 21 13 46 11
52 -6z m117 -3 c18 -17 18 -17 -21 -14 -37 4 -47 11 -32 25 11 12 33 8 53 -11z
m27 12 c-3 -3 -12 -4 -19 -1 -8 3 -5 6 6 6 11 1 17 -2 13 -5z m-1087 -14 c0
-5 -2 -10 -4 -10 -3 0 -8 5 -11 10 -3 6 -1 10 4 10 6 0 11 -4 11 -10z m1750
-10 c0 -11 -4 -20 -10 -20 -5 0 -10 9 -10 20 0 11 5 20 10 20 6 0 10 -9 10
-20z m-980 6 c0 -3 -4 -8 -10 -11 -5 -3 -10 -1 -10 4 0 6 5 11 10 11 6 0 10
-2 10 -4z m284 -42 c15 -40 -3 -47 -21 -9 -9 20 -8 25 2 25 7 0 16 -7 19 -16z
m-354 -10 c0 -8 -4 -12 -10 -9 -5 3 -10 10 -10 16 0 5 5 9 10 9 6 0 10 -7 10
-16z m240 8 c0 -14 -11 -21 -26 -15 -21 8 -17 23 6 23 11 0 20 -4 20 -8z m220
-19 c0 -20 -24 -11 -28 10 -2 12 1 15 12 11 9 -3 16 -13 16 -21z m-265 -13 c3
-5 1 -10 -4 -10 -6 0 -11 5 -11 10 0 6 2 10 4 10 3 0 8 -4 11 -10z m-545 -10
c-8 -5 -24 -9 -35 -9 l-20 0 20 9 c11 5 27 9 35 9 13 1 13 0 0 -9z m354 2 c8
-13 -7 -29 -36 -36 -23 -5 -28 -3 -28 12 0 10 3 22 7 25 9 10 51 9 57 -1z
m296 -3 c0 -7 31 -9 90 -8 50 2 90 6 90 11 0 27 53 -15 65 -51 8 -27 25 -27
25 -1 0 11 4 20 9 20 6 0 8 -9 6 -20 -2 -11 -1 -20 3 -20 12 1 52 38 52 49 0
6 11 4 28 -5 15 -8 48 -13 75 -12 27 1 53 -4 60 -11 10 -10 6 -11 -18 -5 -27
7 -29 6 -16 -10 8 -9 11 -20 7 -24 -4 -4 -12 1 -17 11 -13 22 -31 22 -46 -2
-7 -11 -26 -22 -43 -26 -26 -6 -29 -10 -24 -31 4 -15 2 -24 -6 -24 -12 0 -45
29 -45 39 0 3 -6 5 -12 5 -7 -1 -10 2 -7 7 3 5 -2 9 -10 9 -9 0 -16 -4 -16
-10 0 -13 -37 -13 -45 -1 -3 5 3 11 12 14 14 3 10 7 -14 17 -37 13 -34 34 3
27 26 -5 29 0 14 23 -8 12 -12 13 -19 2 -4 -8 -19 -14 -32 -13 -61 1 -165 14
-169 21 -3 4 -14 12 -25 18 -19 11 -19 11 3 12 12 0 22 -5 22 -11z m470 -9 c0
-5 -5 -10 -11 -10 -5 0 -7 5 -4 10 3 6 8 10 11 10 2 0 4 -4 4 -10z m2927 -12
c-3 -8 -6 -5 -6 6 -1 11 2 17 5 13 3 -3 4 -12 1 -19z m-3072 -8 c-3 -5 -12
-10 -18 -10 -7 0 -6 4 3 10 19 12 23 12 15 0z m586 -5 c1 -8 2 -19 3 -24 0 -5
16 -25 34 -45 34 -38 43 -85 19 -104 -16 -14 -32 -4 -41 26 -4 12 -11 22 -16
22 -14 0 -27 61 -22 103 4 36 21 52 23 22z m-945 -23 c-10 -2 -22 0 -28 6 -6
6 0 7 19 4 21 -5 23 -7 9 -10z m589 -1 c-8 -14 -65 -41 -65 -31 0 5 12 15 28
23 33 18 45 20 37 8z m60 -8 c-16 -2 -36 -12 -42 -21 -11 -14 -13 -14 -13 -1
0 24 10 29 49 28 34 -2 34 -2 6 -6z m-946 -44 c-8 -16 -14 -18 -22 -10 -9 9
-8 14 3 21 24 16 31 11 19 -11z m-471 -36 c-16 -37 -15 -36 -28 -28 -8 5 -4
15 11 31 29 31 31 30 17 -3z m812 17 c0 -5 -4 -10 -10 -10 -5 0 -10 5 -10 10
0 6 5 10 10 10 6 0 10 -4 10 -10z m-110 -14 c0 -3 -4 -8 -10 -11 -5 -3 -10 -1
-10 4 0 6 5 11 10 11 6 0 10 -2 10 -4z m223 -26 c5 -4 3 -17 -5 -29 -14 -23
-29 -28 -25 -8 1 6 -7 12 -18 12 -11 1 -19 6 -17 13 1 7 -7 12 -19 12 -11 0
-17 5 -14 10 7 11 84 3 98 -10z m-683 0 c0 -5 -2 -10 -4 -10 -3 0 -8 5 -11 10
-3 6 -1 10 4 10 6 0 11 -4 11 -10z m280 -26 c0 -12 -2 -12 -14 -2 -8 7 -12 16
-9 21 7 11 23 -2 23 -19z m680 7 c0 -12 -29 -23 -41 -15 -18 10 -9 24 16 24
14 0 25 -4 25 -9z m-220 -61 c0 -16 -4 -30 -10 -30 -5 0 -10 14 -10 30 0 17 5
30 10 30 6 0 10 -13 10 -30z m763 16 c4 -10 0 -12 -15 -8 -15 4 -17 7 -6 13
17 11 15 11 21 -5z m1392 4 c-3 -5 -12 -10 -18 -10 -7 0 -6 4 3 10 19 12 23
12 15 0z m-2075 -14 c0 -8 -4 -18 -10 -21 -5 -3 -10 3 -10 14 0 12 5 21 10 21
6 0 10 -6 10 -14z m584 -27 c-5 -8 -10 -6 -16 5 -5 9 -6 21 -2 27 5 8 10 6 16
-5 5 -9 6 -21 2 -27z m-614 27 c0 -3 -4 -8 -10 -11 -5 -3 -10 -1 -10 4 0 6 5
11 10 11 6 0 10 -2 10 -4z m900 -16 c0 -5 -2 -10 -4 -10 -3 0 -8 5 -11 10 -3
6 -1 10 4 10 6 0 11 -4 11 -10z m-803 -6 c-3 -3 -12 -4 -19 -1 -8 3 -5 6 6 6
11 1 17 -2 13 -5z m618 -4 c18 -8 18 -9 2 -9 -11 -1 -15 -6 -11 -12 4 -8 0 -8
-15 0 -41 22 -20 40 24 21z m1395 1 c0 -6 -4 -13 -10 -16 -5 -3 -10 0 -10 7 0
9 -3 9 -10 -2 -5 -8 -10 -10 -10 -4 0 6 3 14 7 17 10 10 33 8 33 -2z m1095
-21 c3 -5 -1 -10 -9 -10 -8 0 -18 5 -21 10 -3 6 1 10 9 10 8 0 18 -4 21 -10z
m-3755 -10 c0 -5 -4 -10 -10 -10 -5 0 -10 5 -10 10 0 6 5 10 10 10 6 0 10 -4
10 -10z m1180 0 c0 -5 -7 -10 -15 -10 -8 0 -15 5 -15 10 0 6 7 10 15 10 8 0
15 -4 15 -10z m2490 -29 c0 -11 -4 -9 -14 4 -8 11 -12 24 -9 28 7 11 23 -12
23 -32z m-3088 7 c-7 -7 -12 -8 -12 -2 0 6 3 14 7 17 3 4 9 5 12 2 2 -3 -1
-11 -7 -17z m619 -1 c-13 -13 -26 -3 -16 12 3 6 11 8 17 5 6 -4 6 -10 -1 -17z
m-581 3 c0 -5 -2 -10 -4 -10 -3 0 -8 5 -11 10 -3 6 -1 10 4 10 6 0 11 -4 11
-10z m550 -10 c0 -5 -4 -10 -10 -10 -5 0 -10 5 -10 10 0 6 5 10 10 10 6 0 10
-4 10 -10z m-1133 -18 c-19 -21 -22 -42 -7 -42 6 0 10 -4 10 -8 0 -4 -9 -8
-19 -8 -31 0 -33 33 -4 56 32 25 41 26 20 2z m1164 3 c-18 -8 -36 -15 -40 -15
-13 1 45 29 59 29 8 0 0 -6 -19 -14z m2859 -45 c0 -5 -5 -10 -11 -10 -5 0 -7
5 -4 10 3 6 8 10 11 10 2 0 4 -4 4 -10z m-4295 -10 c3 -5 -3 -10 -14 -10 -12
0 -21 5 -21 10 0 6 6 10 14 10 8 0 18 -4 21 -10z m770 0 c3 -5 1 -10 -4 -10
-6 0 -11 5 -11 10 0 6 2 10 4 10 3 0 8 -4 11 -10z m-1085 -38 c0 -15 -2 -15
-10 -2 -13 20 -13 33 0 25 6 -3 10 -14 10 -23z m80 18 c0 -5 -7 -10 -15 -10
-8 0 -15 5 -15 10 0 6 7 10 15 10 8 0 15 -4 15 -10z m2980 6 c0 -3 -4 -8 -10
-11 -5 -3 -10 -1 -10 4 0 6 5 11 10 11 6 0 10 -2 10 -4z m-1903 -40 c-4 -10
-13 -13 -23 -9 -15 6 -15 7 1 20 21 15 30 10 22 -11z m2193 16 c0 -13 -12 -22
-22 -16 -10 6 -1 24 13 24 5 0 9 -4 9 -8z m62 -10 c-7 -5 -10 -16 -6 -25 3 -9
2 -17 -4 -17 -14 0 -22 38 -8 44 19 8 32 6 18 -2z m-317 -10 c20 -14 14 -29
-10 -24 -25 4 -31 13 -18 25 8 9 15 9 28 -1z m376 -7 c0 -13 -41 -19 -41 -7 0
11 20 22 33 18 5 -1 8 -6 8 -11z m-141 -17 c0 -6 -3 -8 -7 -5 -3 4 -12 2 -20
-4 -10 -9 -13 -8 -13 4 0 16 19 28 33 20 4 -2 7 -9 7 -15z m-1955 -18 c4 -6
10 -8 15 -5 12 7 21 -10 14 -28 -4 -12 -10 -10 -30 10 -13 13 -24 26 -24 28 0
9 19 5 25 -5z m85 0 c0 -5 -7 -10 -15 -10 -8 0 -15 5 -15 10 0 6 7 10 15 10 8
0 15 -4 15 -10z m-1368 -22 c-6 -6 -15 -8 -19 -4 -4 4 -1 11 7 16 19 12 27 3
12 -12z m1423 2 c3 -5 1 -10 -4 -10 -6 0 -11 5 -11 10 0 6 2 10 4 10 3 0 8 -4
11 -10z m-329 -48 c-12 -11 -18 7 -10 30 l8 23 4 -23 c2 -13 1 -26 -2 -30z
m2314 39 c0 -6 -4 -13 -10 -16 -5 -3 -10 1 -10 9 0 9 5 16 10 16 6 0 10 -4 10
-9z m-2262 -10 c10 -6 9 -10 -7 -14 -14 -3 -21 0 -21 9 0 16 9 18 28 5z m203
0 c-7 -5 -10 -14 -7 -20 4 -6 2 -11 -3 -11 -6 0 -11 9 -11 20 0 12 7 20 18 20
13 0 14 -2 3 -9z m-1341 -71 c0 -5 -6 -10 -14 -10 -8 0 -18 5 -21 10 -3 6 3
10 14 10 12 0 21 -4 21 -10z m1410 -4 c0 -8 -7 -16 -15 -20 -13 -4 -14 -2 -5
14 13 23 20 26 20 6z m233 -6 c-3 -12 -8 -19 -11 -16 -5 6 5 36 12 36 2 0 2
-9 -1 -20z m1557 -8 c-20 -7 -70 -58 -70 -71 0 -6 7 -8 15 -5 19 8 65 -4 65
-16 0 -6 -10 -6 -26 1 -32 11 -55 5 -79 -21 -19 -21 -72 -29 -60 -9 4 6 13 8
21 5 7 -3 18 4 24 14 6 11 7 20 3 20 -4 0 7 13 25 29 17 17 32 34 32 40 0 18
43 42 55 30 7 -8 6 -13 -5 -17z m-1683 -4 c-3 -8 -6 -5 -6 6 -1 11 2 17 5 13
3 -3 4 -12 1 -19z m210 -4 c-3 -3 -12 -4 -19 -1 -8 3 -5 6 6 6 11 1 17 -2 13
-5z m-1757 -25 c0 -6 -4 -7 -10 -4 -5 3 -10 11 -10 16 0 6 5 7 10 4 6 -3 10
-11 10 -16z m1690 11 c0 -5 -5 -10 -11 -10 -5 0 -7 5 -4 10 3 6 8 10 11 10 2
0 4 -4 4 -10z m-200 -23 c8 -3 1 -6 -17 -6 -25 -1 -31 2 -27 14 4 10 10 12 18
7 6 -5 18 -12 26 -15z m170 13 c0 -5 -5 -10 -12 -10 -6 0 -3 -9 7 -20 14 -15
15 -20 4 -20 -8 0 -20 10 -28 21 -11 18 -11 23 1 30 18 12 28 11 28 -1z m-110
-30 c0 -5 -2 -10 -4 -10 -3 0 -8 5 -11 10 -3 6 -1 10 4 10 6 0 11 -4 11 -10z
m160 0 c0 -5 -6 -10 -14 -10 -8 0 -18 5 -21 10 -3 6 3 10 14 10 12 0 21 -4 21
-10z m-170 -40 c0 -5 -5 -10 -11 -10 -5 0 -7 5 -4 10 3 6 8 10 11 10 2 0 4 -4
4 -10z m130 6 c0 -3 -4 -8 -10 -11 -5 -3 -10 -1 -10 4 0 6 5 11 10 11 6 0 10
-2 10 -4z m1780 -30 c0 -3 -4 -8 -10 -11 -5 -3 -10 -1 -10 4 0 6 5 11 10 11 6
0 10 -2 10 -4z m-333 -68 c-3 -7 -5 -2 -5 12 0 14 2 19 5 13 2 -7 2 -19 0 -25z
m167 10 c-5 -7 -9 -17 -9 -23 0 -15 -37 -66 -43 -61 -3 3 0 12 7 20 6 8 14 24
16 36 5 24 25 53 32 46 3 -3 1 -11 -3 -18z m-72 -79 c-18 -16 -37 -29 -42 -29
-5 0 7 15 28 34 20 19 39 32 42 29 3 -2 -10 -18 -28 -34z m-2877 -14 c-33 -27
-49 -32 -43 -13 5 14 60 48 68 41 2 -2 -9 -15 -25 -28z m1294 -16 c-16 -10
-23 -4 -14 10 3 6 11 8 17 5 6 -4 5 -9 -3 -15z m324 -6 c3 -5 -9 -9 -26 -10
-26 -1 -28 0 -12 7 26 11 33 12 38 3z m-1685 -22 c3 -10 0 -12 -12 -8 -11 4
-16 1 -16 -9 0 -11 -6 -14 -16 -10 -9 3 -25 6 -37 7 l-22 0 21 9 c12 5 25 14
29 20 9 15 47 9 53 -9z m2892 15 c0 -3 -4 -8 -10 -11 -5 -3 -10 -1 -10 4 0 6
5 11 10 11 6 0 10 -2 10 -4z m640 -11 c0 -8 -4 -15 -10 -15 -5 0 -7 7 -4 15 4
8 8 15 10 15 2 0 4 -7 4 -15z m-275 -5 c-3 -5 -10 -10 -16 -10 -5 0 -9 5 -9
10 0 6 7 10 16 10 8 0 12 -4 9 -10z m-3137 -28 c10 -7 9 -15 -4 -38 l-16 -29
5 28 4 28 -19 -21 c-22 -23 -29 -25 -47 -7 -10 10 -11 9 -6 -4 4 -10 0 -19 -8
-22 -7 -3 -14 0 -14 6 0 7 -3 22 -7 35 -9 26 1 28 32 7 20 -15 21 -15 15 1 -5
13 -3 16 10 11 9 -3 17 -2 17 3 0 12 20 13 38 2z m1062 -2 c0 -5 -5 -10 -11
-10 -5 0 -7 5 -4 10 3 6 8 10 11 10 2 0 4 -4 4 -10z m2040 0 c-20 -13 -33 -13
-25 0 3 6 14 10 23 10 15 0 15 -2 2 -10z m300 0 c0 -5 -5 -10 -11 -10 -5 0 -7
5 -4 10 3 6 8 10 11 10 2 0 4 -4 4 -10z m-170 -15 c0 -8 -2 -15 -4 -15 -2 0
-6 7 -10 15 -3 8 -1 15 4 15 6 0 10 -7 10 -15z m-50 -64 c0 -5 -9 -11 -20 -14
-20 -5 -26 3 -13 16 9 10 33 8 33 -2z m535 -51 c3 -5 2 -10 -4 -10 -5 0 -13 5
-16 10 -3 6 -2 10 4 10 5 0 13 -4 16 -10z m-3695 -54 c0 -11 -19 -15 -25 -6
-3 5 1 10 9 10 9 0 16 -2 16 -4z m-40 -36 c0 -5 -7 -10 -15 -10 -8 0 -15 5
-15 10 0 6 7 10 15 10 8 0 15 -4 15 -10z m72 -37 c16 -7 28 -8 30 -3 2 6 18
14 36 20 28 8 32 7 22 -5 -6 -8 -18 -11 -26 -8 -8 3 -14 0 -14 -5 0 -6 8 -13
18 -15 9 -3 2 -5 -16 -6 -38 -1 -92 23 -92 42 0 8 3 8 8 2 4 -6 19 -16 34 -22z
m-52 -3 c0 -5 -7 -10 -15 -10 -8 0 -15 5 -15 10 0 6 7 10 15 10 8 0 15 -4 15
-10z m170 0 c0 -5 -5 -10 -11 -10 -5 0 -7 5 -4 10 3 6 8 10 11 10 2 0 4 -4 4
-10z"/>
<path d="M1570 2370 c6 -12 18 -24 26 -27 7 -3 12 -9 9 -13 -3 -4 2 -11 11
-14 13 -5 13 -2 -2 22 -9 16 -25 34 -36 41 -18 11 -18 10 -8 -9z"/>
<path d="M536 4042 c-3 -5 1 -9 9 -9 8 0 15 4 15 9 0 4 -4 8 -9 8 -6 0 -12 -4
-15 -8z"/>
<path d="M2260 3640 c0 -5 5 -10 11 -10 5 0 7 5 4 10 -3 6 -8 10 -11 10 -2 0
-4 -4 -4 -10z"/>
<path d="M2722 3284 c-12 -8 -22 -10 -22 -5 0 6 -4 11 -10 11 -5 0 -10 -7 -10
-15 0 -8 -8 -20 -19 -27 -18 -11 -18 -12 5 -37 13 -14 24 -29 24 -32 0 -8 36
-11 108 -11 57 0 57 -6 7 -51 -74 -65 -78 -70 -80 -108 -2 -41 3 -47 24 -26
11 10 11 8 1 -12 -13 -26 -2 -41 31 -41 12 0 15 -7 12 -24 -3 -14 1 -25 9 -29
7 -3 31 -13 53 -22 23 -10 35 -12 28 -5 -23 24 27 53 87 51 20 -1 22 1 10 9
-12 8 -11 10 7 10 12 0 31 12 42 26 27 34 26 44 0 37 -19 -5 -20 -4 -8 15 8
12 20 19 32 16 25 -4 67 -43 67 -61 0 -10 7 -12 20 -8 12 4 28 1 36 -6 8 -6
17 -9 21 -5 19 19 -149 126 -203 130 -12 0 -20 4 -17 9 2 4 -2 8 -9 8 -7 1 1
5 17 9 l30 8 -32 1 c-33 1 -53 18 -35 30 5 3 11 15 14 26 2 11 10 20 18 21 8
0 22 4 30 7 39 15 88 24 117 20 17 -3 34 0 37 6 4 6 24 11 44 12 35 0 36 1 12
11 -23 9 -24 11 -6 17 19 7 19 8 -2 13 -12 4 -20 2 -16 -3 8 -14 -19 -11 -67
7 -60 23 -128 33 -132 21 -4 -12 -85 -15 -112 -3 -21 9 -97 9 -129 -1 -12 -3
-16 -1 -12 6 10 15 5 14 -22 -5z m168 -274 c0 -5 -5 -10 -11 -10 -5 0 -7 5 -4
10 3 6 8 10 11 10 2 0 4 -4 4 -10z m6 -57 c-3 -3 -12 2 -20 10 -12 11 -13 16
-3 20 13 4 33 -21 23 -30z m101 15 c-3 -8 -6 -5 -6 6 -1 11 2 17 5 13 3 -3 4
-12 1 -19z"/>
<path d="M3135 3280 c27 -12 43 -12 25 0 -8 5 -22 9 -30 9 -10 0 -8 -3 5 -9z"/>
<path d="M3176 3017 c3 -10 9 -15 12 -12 3 3 0 11 -7 18 -10 9 -11 8 -5 -6z"/>
<path d="M2105 2370 c3 -5 8 -10 11 -10 2 0 4 5 4 10 0 6 -5 10 -11 10 -5 0
-7 -4 -4 -10z"/>
<path d="M2057 2335 c-31 -28 -30 -30 7 -15 21 8 24 7 19 -7 -4 -10 -2 -14 6
-12 7 3 12 8 11 13 -1 5 4 13 12 17 11 7 10 11 -2 19 -20 13 -21 13 -53 -15z"/>
<path d="M3064 1688 l-19 -23 25 20 c14 11 27 21 29 22 2 2 0 3 -6 3 -5 0 -18
-10 -29 -22z"/>
<path d="M2985 1613 c-28 -24 -36 -35 -20 -24 53 36 80 59 75 65 -3 2 -28 -16
-55 -41z"/>
<path d="M2622 1585 c-17 -9 -19 -14 -9 -18 16 -6 31 3 35 21 1 6 1 12 0 11
-2 -1 -13 -7 -26 -14z"/>
<path d="M2670 1542 c0 -11 7 -18 21 -18 18 0 18 2 5 12 -9 6 -13 14 -9 17 3
4 1 7 -5 7 -7 0 -12 -8 -12 -18z"/>
<path d="M2895 1540 c-3 -5 -1 -10 4 -10 6 0 11 5 11 10 0 6 -2 10 -4 10 -3 0
-8 -4 -11 -10z"/>
<path d="M2752 1515 c0 -16 2 -22 5 -12 2 9 2 23 0 30 -3 6 -5 -1 -5 -18z"/>
<path d="M2824 1486 c-10 -8 -17 -16 -14 -19 3 -2 14 4 24 14 23 22 18 25 -10
5z"/>
<path d="M1739 1125 c-35 -19 -66 -105 -38 -105 5 0 7 4 4 10 -9 14 21 65 52
89 32 23 21 27 -18 6z"/>
<path d="M2176 1131 c-9 -14 5 -18 39 -10 17 3 22 7 13 8 -9 0 -23 4 -31 7 -8
3 -18 1 -21 -5z"/>
<path d="M2250 1110 c0 -5 5 -10 10 -10 6 0 10 5 10 10 0 6 -4 10 -10 10 -5 0
-10 -4 -10 -10z"/>
<path d="M1987 659 c7 -7 15 -10 18 -7 3 3 -2 9 -12 12 -14 6 -15 5 -6 -5z"/>
<path d="M2087 619 c7 -7 15 -10 18 -7 3 3 -2 9 -12 12 -14 6 -15 5 -6 -5z"/>
</g>
</svg>
