<?xml version="1.0" encoding="UTF-8" standalone="no"?>
<!-- Generator: Adobe Illustrator 19.1.0, SVG Export Plug-In . SVG Version: 6.00 Build 0)  -->
<svg id="Layer_1" xmlns="http://www.w3.org/2000/svg" xml:space="preserve" viewBox="0 0 150 79" version="1.1" y="0px" x="0px" xmlns:xlink="http://www.w3.org/1999/xlink" enable-background="new 0 0 150 79">
	<path d="m14.5 0.5c7.5 0 11.4 5.9 11.4 11.7 0 5.9-3.8 11.7-11.4 11.7h-7.7v11.7h-5.1v-35h12.8zm0 18.3c4.2 0 6.4-3.3 6.4-6.6 0-3.4-2.1-6.7-6.4-6.7h-7.7v13.3h7.7z" fill="#fff"/>
	<path d="m65.7 0h-3.7l-12 30.4h-16.8v-29.9h-5v35h25.2c1.1-2.9 2.8-7.1 4.2-10.3h12.6l4.2 10.3h5.4l-14.1-35.5zm-6.3 20.4l4.4-12.4 4.3 12.4h-8.7z" fill="#fff"/>
	<path d="m130.7 17.7h5.9c4.2 0 6.4-3.1 6.4-6.1s-2.1-6.1-6.4-6.1h-7.8v29.9h-5v-35h12.8c7.6 0 11.4 5.6 11.4 11.2 0 5-3 9.7-9 10.7l11 13.2h-6.5l-12.8-15.4v-2.4z" fill="#fff"/>
	<g fill="#fff">
		<polygon points="103.4 0.5 100.2 0.5 97.4 0.5 87.8 15.9 78.2 0.5 72.3 0.5 85.2 21.2 85.2 35.5 90.3 35.5 90.3 21.2 100.2 5.5 100.2 5.6 121.5 5.6 121.5 0.5"/>
			<polygon points="121.2 20.5 121.2 15.4 105.3 15.4 100.2 15.4 100.2 20.5"/>
			<rect y="30.4" x="100.2" height="5.1" width="21.4"/>
	</g>
		<g stroke-linejoin="round" stroke="#086BBC" stroke-linecap="round" stroke-miterlimit="10" stroke-width="1.5" fill="none">
				<line x1="119.7" y2="62.3" x2="127.5" y1="69.9"/>
				<line x1="129.7" y2="55.8" x2="133.9" y1="59.9"/>
		</g>
		<g stroke-linejoin="round" stroke="#EDB107" stroke-linecap="round" stroke-miterlimit="10" stroke-width="1.5" fill="none">
				<line x1="112.7" y2="53.5" x2="122.4" y1="62.8"/>
				<line x1="108.3" y2="65" x2="110.5" y1="67.1"/>
		</g>
		<g stroke-linejoin="round" stroke="#DB236E" stroke-linecap="round" stroke-miterlimit="10" stroke-width="1.5" fill="none">
				<line x1="112.3" y2="46.7" x2="121.5" y1="55.6"/>
				<line x1="109.5" y2="57.8" x2="109.9" y1="58.2"/>
		</g>
		<g stroke-linejoin="round" stroke="#00B5A3" stroke-linecap="round" stroke-miterlimit="10" stroke-width="1.5" fill="none">
				<line x1="107.3" y2="50.5" x2="132.3" y1="74.8"/>
				<line x1="134.4" y2="47.6" x2="135.3" y1="48.4"/>
		</g>
		<path d="m23.4 79c-5 0-9.9-2-13.3-5.6-3.5-3.6-5.5-8.4-5.5-13.4s2-9.8 5.5-13.4c3.4-3.6 8.3-5.6 13.3-5.6 5.1 0 9.8 2 13.4 5.6s5.5 8.4 5.5 13.4-2 9.8-5.5 13.4c-3.6 3.6-8.3 5.6-13.4 5.6zm0-35.2c-4.3 0-8.3 1.7-11.3 4.8s-4.7 7.1-4.7 11.4 1.7 8.3 4.7 11.4c3 3.1 7.1 4.8 11.3 4.8 4.3 0 8.3-1.7 11.4-4.8 3-3.1 4.7-7.1 4.7-11.4s-1.7-8.3-4.7-11.4c-3-3.1-7.1-4.8-11.4-4.8z" fill="#C6C6C6"/>
			<path d="m6.2 75c0 1.5-1.4 3-3.2 3-1.7 0-3-1.5-3-3.1 0-1.9 1.3-3.1 3-3.1 1.8 0.1 3.2 1.3 3.2 3.2z" fill="#fff"/>
		<polygon points="77.5 44.3 80.5 44.3 96.1 44.3 96.1 41.6 71.9 41.5 71.9 73.5 46.8 41.5 46.8 41.5 44 41.5 44 78.5 46.8 78.5 46.8 46 72.4 78.5 74.4 78.5 74.7 78.5 96.1 78.5 96.1 75.8 74.7 75.7 74.7 61.4 77.5 61.4 77.5 61.4 96.1 61.4 96.1 58.6 74.7 58.6 74.7 44.3" fill="#C6C6C6"/>
</svg>
